<mxfile host="app.diagrams.net" modified="2023-10-22T16:23:24.364Z" agent="Mozilla/5.0 (Macintosh; Intel Mac OS X 10_15_7) AppleWebKit/537.36 (KHTML, like Gecko) Chrome/118.0.0.0 Safari/537.36" etag="6Jr4tkv45v3J7JhroqgT" version="22.0.6" type="github">
  <diagram name="Page-1" id="Seg9eLYfbvG9fYDRIOxm">
    <mxGraphModel dx="1434" dy="797" grid="0" gridSize="10" guides="1" tooltips="1" connect="1" arrows="1" fold="1" page="1" pageScale="1" pageWidth="2339" pageHeight="3300" math="0" shadow="0">
      <root>
        <mxCell id="0" />
        <mxCell id="1" parent="0" />
        <mxCell id="QYCvOMp_CowarNUwSAN5-10" value="" style="rounded=0;whiteSpace=wrap;html=1;fillStyle=hatch;fillColor=none;dashed=1;" vertex="1" parent="1">
          <mxGeometry x="473" y="497" width="1020" height="320" as="geometry" />
        </mxCell>
        <mxCell id="hK698nOwGelB4IAssb44-3" value="" style="edgeStyle=orthogonalEdgeStyle;rounded=0;orthogonalLoop=1;jettySize=auto;html=1;" parent="1" source="hK698nOwGelB4IAssb44-16" target="hK698nOwGelB4IAssb44-2" edge="1">
          <mxGeometry relative="1" as="geometry" />
        </mxCell>
        <mxCell id="hK698nOwGelB4IAssb44-1" value="评估帖子ID" style="rounded=1;whiteSpace=wrap;html=1;" parent="1" vertex="1">
          <mxGeometry x="613" y="427" width="120" height="50" as="geometry" />
        </mxCell>
        <mxCell id="hK698nOwGelB4IAssb44-5" value="" style="edgeStyle=orthogonalEdgeStyle;rounded=0;orthogonalLoop=1;jettySize=auto;html=1;" parent="1" source="hK698nOwGelB4IAssb44-2" target="hK698nOwGelB4IAssb44-4" edge="1">
          <mxGeometry relative="1" as="geometry" />
        </mxCell>
        <mxCell id="hK698nOwGelB4IAssb44-7" value="" style="edgeStyle=orthogonalEdgeStyle;rounded=0;orthogonalLoop=1;jettySize=auto;html=1;" parent="1" source="hK698nOwGelB4IAssb44-2" target="hK698nOwGelB4IAssb44-6" edge="1">
          <mxGeometry relative="1" as="geometry" />
        </mxCell>
        <mxCell id="hK698nOwGelB4IAssb44-2" value="查询评估帖子的评论" style="rounded=1;whiteSpace=wrap;html=1;" parent="1" vertex="1">
          <mxGeometry x="613" y="592" width="120" height="60" as="geometry" />
        </mxCell>
        <mxCell id="hK698nOwGelB4IAssb44-32" value="" style="edgeStyle=orthogonalEdgeStyle;rounded=0;orthogonalLoop=1;jettySize=auto;html=1;" parent="1" source="hK698nOwGelB4IAssb44-4" edge="1">
          <mxGeometry relative="1" as="geometry">
            <mxPoint x="853" y="967" as="targetPoint" />
            <Array as="points">
              <mxPoint x="673" y="967" />
            </Array>
          </mxGeometry>
        </mxCell>
        <mxCell id="hK698nOwGelB4IAssb44-4" value="判断评论与主贴相关性&lt;br&gt;以及情感" style="ellipse;shape=cloud;whiteSpace=wrap;html=1;rounded=1;" parent="1" vertex="1">
          <mxGeometry x="593" y="827" width="160" height="95" as="geometry" />
        </mxCell>
        <mxCell id="hK698nOwGelB4IAssb44-9" value="" style="edgeStyle=orthogonalEdgeStyle;rounded=0;orthogonalLoop=1;jettySize=auto;html=1;" parent="1" source="hK698nOwGelB4IAssb44-6" target="hK698nOwGelB4IAssb44-8" edge="1">
          <mxGeometry relative="1" as="geometry" />
        </mxCell>
        <mxCell id="hK698nOwGelB4IAssb44-10" value="" style="edgeStyle=orthogonalEdgeStyle;rounded=0;orthogonalLoop=1;jettySize=auto;html=1;" parent="1" source="hK698nOwGelB4IAssb44-6" target="hK698nOwGelB4IAssb44-8" edge="1">
          <mxGeometry relative="1" as="geometry" />
        </mxCell>
        <mxCell id="hK698nOwGelB4IAssb44-11" style="edgeStyle=orthogonalEdgeStyle;rounded=0;orthogonalLoop=1;jettySize=auto;html=1;exitX=1;exitY=0.5;exitDx=0;exitDy=0;entryX=0;entryY=0.5;entryDx=0;entryDy=0;" parent="1" source="hK698nOwGelB4IAssb44-6" target="hK698nOwGelB4IAssb44-12" edge="1">
          <mxGeometry relative="1" as="geometry">
            <mxPoint x="1013" y="677" as="targetPoint" />
          </mxGeometry>
        </mxCell>
        <mxCell id="QYCvOMp_CowarNUwSAN5-3" value="" style="edgeStyle=orthogonalEdgeStyle;rounded=0;orthogonalLoop=1;jettySize=auto;html=1;dashed=1;" edge="1" parent="1" source="hK698nOwGelB4IAssb44-6" target="QYCvOMp_CowarNUwSAN5-2">
          <mxGeometry relative="1" as="geometry" />
        </mxCell>
        <mxCell id="hK698nOwGelB4IAssb44-6" value="评估帖子的评论用户" style="rounded=1;whiteSpace=wrap;html=1;" parent="1" vertex="1">
          <mxGeometry x="813" y="592" width="120" height="60" as="geometry" />
        </mxCell>
        <mxCell id="hK698nOwGelB4IAssb44-15" value="" style="edgeStyle=orthogonalEdgeStyle;rounded=0;orthogonalLoop=1;jettySize=auto;html=1;" parent="1" source="hK698nOwGelB4IAssb44-8" target="hK698nOwGelB4IAssb44-14" edge="1">
          <mxGeometry relative="1" as="geometry" />
        </mxCell>
        <mxCell id="hK698nOwGelB4IAssb44-8" value="近期评论" style="rounded=1;whiteSpace=wrap;html=1;" parent="1" vertex="1">
          <mxGeometry x="1013" y="532" width="120" height="60" as="geometry" />
        </mxCell>
        <mxCell id="hK698nOwGelB4IAssb44-19" value="" style="edgeStyle=orthogonalEdgeStyle;rounded=0;orthogonalLoop=1;jettySize=auto;html=1;" parent="1" source="hK698nOwGelB4IAssb44-12" target="hK698nOwGelB4IAssb44-18" edge="1">
          <mxGeometry relative="1" as="geometry" />
        </mxCell>
        <mxCell id="hK698nOwGelB4IAssb44-12" value="近期评论正文" style="rounded=1;whiteSpace=wrap;html=1;" parent="1" vertex="1">
          <mxGeometry x="1013" y="652" width="120" height="60" as="geometry" />
        </mxCell>
        <mxCell id="hK698nOwGelB4IAssb44-13" value="" style="endArrow=none;dashed=1;html=1;dashPattern=1 3;strokeWidth=2;rounded=0;entryX=0.5;entryY=1;entryDx=0;entryDy=0;exitX=0.5;exitY=0;exitDx=0;exitDy=0;" parent="1" source="hK698nOwGelB4IAssb44-12" target="hK698nOwGelB4IAssb44-8" edge="1">
          <mxGeometry width="50" height="50" relative="1" as="geometry">
            <mxPoint x="1053" y="657" as="sourcePoint" />
            <mxPoint x="1103" y="607" as="targetPoint" />
          </mxGeometry>
        </mxCell>
        <mxCell id="hK698nOwGelB4IAssb44-14" value="与评估帖子&lt;br&gt;的相关性判断" style="ellipse;shape=cloud;whiteSpace=wrap;html=1;rounded=1;" parent="1" vertex="1">
          <mxGeometry x="1213" y="522" width="120" height="80" as="geometry" />
        </mxCell>
        <mxCell id="hK698nOwGelB4IAssb44-17" value="" style="edgeStyle=orthogonalEdgeStyle;rounded=0;orthogonalLoop=1;jettySize=auto;html=1;" parent="1" source="hK698nOwGelB4IAssb44-1" target="hK698nOwGelB4IAssb44-16" edge="1">
          <mxGeometry relative="1" as="geometry">
            <mxPoint x="673" y="477" as="sourcePoint" />
            <mxPoint x="673" y="592" as="targetPoint" />
          </mxGeometry>
        </mxCell>
        <mxCell id="hK698nOwGelB4IAssb44-16" value="查询评估帖子/用户信息" style="rounded=1;whiteSpace=wrap;html=1;" parent="1" vertex="1">
          <mxGeometry x="613" y="507" width="120" height="60" as="geometry" />
        </mxCell>
        <mxCell id="QYCvOMp_CowarNUwSAN5-20" style="edgeStyle=orthogonalEdgeStyle;rounded=0;orthogonalLoop=1;jettySize=auto;html=1;exitX=0.875;exitY=0.5;exitDx=0;exitDy=0;exitPerimeter=0;entryX=0;entryY=0.5;entryDx=0;entryDy=0;dashed=1;" edge="1" parent="1" source="hK698nOwGelB4IAssb44-18" target="QYCvOMp_CowarNUwSAN5-18">
          <mxGeometry relative="1" as="geometry" />
        </mxCell>
        <mxCell id="hK698nOwGelB4IAssb44-18" value="与评估帖子&lt;br style=&quot;border-color: var(--border-color);&quot;&gt;的相关性判断" style="ellipse;shape=cloud;whiteSpace=wrap;html=1;rounded=1;" parent="1" vertex="1">
          <mxGeometry x="1213" y="642" width="120" height="80" as="geometry" />
        </mxCell>
        <mxCell id="hK698nOwGelB4IAssb44-33" style="edgeStyle=orthogonalEdgeStyle;rounded=0;orthogonalLoop=1;jettySize=auto;html=1;entryX=0.875;entryY=0.5;entryDx=0;entryDy=0;entryPerimeter=0;" parent="1" source="hK698nOwGelB4IAssb44-18" edge="1" target="QYCvOMp_CowarNUwSAN5-4">
          <mxGeometry relative="1" as="geometry">
            <mxPoint x="958" y="967" as="targetPoint" />
            <Array as="points">
              <mxPoint x="1283" y="967" />
            </Array>
          </mxGeometry>
        </mxCell>
        <mxCell id="hK698nOwGelB4IAssb44-34" style="edgeStyle=orthogonalEdgeStyle;rounded=0;orthogonalLoop=1;jettySize=auto;html=1;entryX=0.875;entryY=0.5;entryDx=0;entryDy=0;entryPerimeter=0;" parent="1" source="hK698nOwGelB4IAssb44-14" target="QYCvOMp_CowarNUwSAN5-4" edge="1">
          <mxGeometry relative="1" as="geometry">
            <mxPoint x="973" y="967" as="targetPoint" />
            <Array as="points">
              <mxPoint x="1353" y="562" />
              <mxPoint x="1353" y="967" />
            </Array>
          </mxGeometry>
        </mxCell>
        <mxCell id="QYCvOMp_CowarNUwSAN5-13" value="" style="edgeStyle=orthogonalEdgeStyle;rounded=0;orthogonalLoop=1;jettySize=auto;html=1;dashed=1;" edge="1" parent="1" source="QYCvOMp_CowarNUwSAN5-2" target="QYCvOMp_CowarNUwSAN5-12">
          <mxGeometry relative="1" as="geometry" />
        </mxCell>
        <mxCell id="QYCvOMp_CowarNUwSAN5-2" value="用户近期发文" style="rounded=1;whiteSpace=wrap;html=1;dashed=1;" vertex="1" parent="1">
          <mxGeometry x="813" y="737" width="120" height="60" as="geometry" />
        </mxCell>
        <mxCell id="QYCvOMp_CowarNUwSAN5-9" value="" style="edgeStyle=orthogonalEdgeStyle;rounded=0;orthogonalLoop=1;jettySize=auto;html=1;" edge="1" parent="1" source="QYCvOMp_CowarNUwSAN5-4" target="QYCvOMp_CowarNUwSAN5-8">
          <mxGeometry relative="1" as="geometry" />
        </mxCell>
        <mxCell id="QYCvOMp_CowarNUwSAN5-22" style="edgeStyle=orthogonalEdgeStyle;rounded=0;orthogonalLoop=1;jettySize=auto;html=1;exitX=0.55;exitY=0.95;exitDx=0;exitDy=0;exitPerimeter=0;dashed=1;" edge="1" parent="1" source="QYCvOMp_CowarNUwSAN5-4" target="QYCvOMp_CowarNUwSAN5-18">
          <mxGeometry relative="1" as="geometry" />
        </mxCell>
        <mxCell id="QYCvOMp_CowarNUwSAN5-23" value="处理" style="edgeLabel;html=1;align=center;verticalAlign=middle;resizable=0;points=[];" vertex="1" connectable="0" parent="QYCvOMp_CowarNUwSAN5-22">
          <mxGeometry x="-0.0397" y="-3" relative="1" as="geometry">
            <mxPoint as="offset" />
          </mxGeometry>
        </mxCell>
        <mxCell id="QYCvOMp_CowarNUwSAN5-4" value="根据输出信息&lt;br&gt;自行总结结论&lt;br&gt;输出报告" style="ellipse;shape=cloud;whiteSpace=wrap;html=1;dashed=1;" vertex="1" parent="1">
          <mxGeometry x="843" y="927" width="120" height="80" as="geometry" />
        </mxCell>
        <mxCell id="QYCvOMp_CowarNUwSAN5-8" value="结束" style="rounded=1;whiteSpace=wrap;html=1;" vertex="1" parent="1">
          <mxGeometry x="843" y="1097" width="120" height="60" as="geometry" />
        </mxCell>
        <mxCell id="QYCvOMp_CowarNUwSAN5-11" value="点赞、收藏、转发" style="text;html=1;strokeColor=none;fillColor=none;align=center;verticalAlign=middle;whiteSpace=wrap;rounded=0;" vertex="1" parent="1">
          <mxGeometry x="483" y="487" width="110" height="20" as="geometry" />
        </mxCell>
        <mxCell id="QYCvOMp_CowarNUwSAN5-21" style="edgeStyle=orthogonalEdgeStyle;rounded=0;orthogonalLoop=1;jettySize=auto;html=1;exitX=0.875;exitY=0.5;exitDx=0;exitDy=0;exitPerimeter=0;entryX=0;entryY=0.75;entryDx=0;entryDy=0;dashed=1;" edge="1" parent="1" source="QYCvOMp_CowarNUwSAN5-12" target="QYCvOMp_CowarNUwSAN5-18">
          <mxGeometry relative="1" as="geometry" />
        </mxCell>
        <mxCell id="QYCvOMp_CowarNUwSAN5-12" value="与评估帖子&lt;br style=&quot;border-color: var(--border-color);&quot;&gt;的相关性判断" style="ellipse;shape=cloud;whiteSpace=wrap;html=1;rounded=1;dashed=1;" vertex="1" parent="1">
          <mxGeometry x="1083" y="727" width="120" height="80" as="geometry" />
        </mxCell>
        <mxCell id="QYCvOMp_CowarNUwSAN5-14" style="edgeStyle=orthogonalEdgeStyle;rounded=0;orthogonalLoop=1;jettySize=auto;html=1;entryX=0.875;entryY=0.5;entryDx=0;entryDy=0;entryPerimeter=0;dashed=1;" edge="1" parent="1" source="QYCvOMp_CowarNUwSAN5-12" target="QYCvOMp_CowarNUwSAN5-4">
          <mxGeometry relative="1" as="geometry">
            <Array as="points">
              <mxPoint x="1153" y="967" />
            </Array>
          </mxGeometry>
        </mxCell>
        <mxCell id="QYCvOMp_CowarNUwSAN5-18" value="数据存储" style="rounded=0;whiteSpace=wrap;html=1;dashed=1;" vertex="1" parent="1">
          <mxGeometry x="1383" y="532" width="80" height="255" as="geometry" />
        </mxCell>
        <mxCell id="QYCvOMp_CowarNUwSAN5-19" style="edgeStyle=orthogonalEdgeStyle;rounded=0;orthogonalLoop=1;jettySize=auto;html=1;exitX=0.875;exitY=0.5;exitDx=0;exitDy=0;exitPerimeter=0;entryX=0;entryY=0.118;entryDx=0;entryDy=0;entryPerimeter=0;dashed=1;" edge="1" parent="1" source="hK698nOwGelB4IAssb44-14" target="QYCvOMp_CowarNUwSAN5-18">
          <mxGeometry relative="1" as="geometry" />
        </mxCell>
      </root>
    </mxGraphModel>
  </diagram>
</mxfile>
